HIERARCHY
ROOT Hips
{
	OFFSET 0.000000 0.000000 0.000000
	CHANNELS 6 Xposition Yposition Zposition Xrotation Yrotation Zrotation
	JOINT LeftUpLeg_virtual
	{
		OFFSET 0.000000 0.000000 0.000000
		CHANNELS 3 Xrotation Yrotation Zrotation
		JOINT LeftUpLeg
		{
			OFFSET 13.026900 -6.336304 -1.092800
			CHANNELS 3 Xrotation Yrotation Zrotation
			JOINT LeftLeg
			{
				OFFSET 0.524474 -46.096886 9.782700
				CHANNELS 3 Xrotation Yrotation Zrotation
				JOINT LeftFoot
				{
					OFFSET -0.524474 -53.427422 -12.948200
					CHANNELS 3 Xrotation Yrotation Zrotation
					JOINT LeftToeBase
					{
						OFFSET 0.192200 -14.009700 16.364100
						CHANNELS 3 Xrotation Yrotation Zrotation
						JOINT LeftToe_End
						{
							OFFSET -1.784700 -0.561700 9.474800
							CHANNELS 3 Xrotation Yrotation Zrotation
							End Site
							{
								OFFSET 0 0 0
							}
						}
					}
				}
			}
		}
	}
	JOINT RightUpLeg_virtual
	{
		OFFSET 0.000000 0.000000 0.000000
		CHANNELS 3 Xrotation Yrotation Zrotation
		JOINT RightUpLeg
		{
			OFFSET -12.883000 -6.336304 -1.092800
			CHANNELS 3 Xrotation Yrotation Zrotation
			JOINT RightLeg
			{
				OFFSET -0.524587 -46.096825 9.782800
				CHANNELS 3 Xrotation Yrotation Zrotation
				JOINT RightFoot
				{
					OFFSET 0.524587 -53.427383 -12.948300
					CHANNELS 3 Xrotation Yrotation Zrotation
					JOINT RightToeBase
					{
						OFFSET -0.192200 -14.009700 16.364100
						CHANNELS 3 Xrotation Yrotation Zrotation
						JOINT RightToe_End
						{
							OFFSET 1.784700 -0.561700 9.474800
							CHANNELS 3 Xrotation Yrotation Zrotation
							End Site
							{
								OFFSET 0 0 0
							}
						}
					}
				}
			}
		}
	}
	JOINT Spine_virtual
	{
		OFFSET 0.000000 0.000000 0.000000
		CHANNELS 3 Xrotation Yrotation Zrotation
		JOINT Spine
		{
			OFFSET 0.072000 7.257294 -0.789700
			CHANNELS 3 Xrotation Yrotation Zrotation
			JOINT Spine1
			{
				OFFSET 0.000000 12.508769 -0.658067
				CHANNELS 3 Xrotation Yrotation Zrotation
				JOINT Spine1_split
				{
					OFFSET 0.000000 12.508769 -0.658067
					CHANNELS 3 Xrotation Yrotation Zrotation
					JOINT Spine2
					{
						OFFSET 0.000000 12.508769 -0.658067
						CHANNELS 3 Xrotation Yrotation Zrotation
						JOINT Neck_virtual
						{
							OFFSET 0.000000 0.000000 0.000000
							CHANNELS 3 Xrotation Yrotation Zrotation
							JOINT Neck
							{
								OFFSET 0.000000 14.033295 7.520400
								CHANNELS 3 Xrotation Yrotation Zrotation
								JOINT Head
								{
									OFFSET 0.000000 8.198502 5.703100
									CHANNELS 3 Xrotation Yrotation Zrotation
									JOINT HeadTop_End
									{
										OFFSET 0.000000 17.760803 13.332701
										CHANNELS 3 Xrotation Yrotation Zrotation
										End Site
										{
											OFFSET 0 0 0
										}
									}
								}
							}
						}
						JOINT LeftShoulder_virtual
						{
							OFFSET 0.000000 0.000000 0.000000
							CHANNELS 3 Xrotation Yrotation Zrotation
							JOINT LeftShoulder
							{
								OFFSET 6.292450 5.785301 -0.669000
								CHANNELS 3 Xrotation Yrotation Zrotation
								JOINT LeftShoulder_split
								{
									OFFSET 6.292450 5.785301 -0.669000
									CHANNELS 3 Xrotation Yrotation Zrotation
									JOINT LeftArm
									{
										OFFSET 13.907140 -6.093903 1.965100
										CHANNELS 3 Xrotation Yrotation Zrotation
										JOINT LeftForeArm
										{
											OFFSET 34.140198 0.000000 0.000000
											CHANNELS 3 Xrotation Yrotation Zrotation
											JOINT LeftHand
											{
												OFFSET 40.960209 0.000000 0.000000
												CHANNELS 3 Xrotation Yrotation Zrotation
												End Site
												{
													OFFSET 0 0 0
												}
											}
										}
									}
								}
							}
						}
						JOINT RightShoulder_virtual
						{
							OFFSET 0.000000 0.000000 0.000000
							CHANNELS 3 Xrotation Yrotation Zrotation
							JOINT RightShoulder
							{
								OFFSET -6.292450 5.785301 -0.669000
								CHANNELS 3 Xrotation Yrotation Zrotation
								JOINT RightShoulder_split
								{
									OFFSET -6.292450 5.785301 -0.669000
									CHANNELS 3 Xrotation Yrotation Zrotation
									JOINT RightArm
									{
										OFFSET -13.907140 -6.093903 1.965100
										CHANNELS 3 Xrotation Yrotation Zrotation
										JOINT RightForeArm
										{
											OFFSET -34.140198 0.000000 0.000000
											CHANNELS 3 Xrotation Yrotation Zrotation
											JOINT RightHand
											{
												OFFSET -40.960209 0.000000 0.000000
												CHANNELS 3 Xrotation Yrotation Zrotation
												End Site
												{
													OFFSET 0 0 0
												}
											}
										}
									}
								}
							}
						}
					}
				}
			}
		}
	}
}
MOTION
Frames: 9
Frame Time: 0.03333333
2.510242 110.812378 3.678806 0.000000 0.000000 0.000000 -31.499443 -42.516562 -20.435550 -5.507501 11.598442 5.066776 34.865114 3.221954 -2.574825 -8.327404 5.523587 2.107079 -5.323268 0.101031 -0.433359 0.000000 0.000000 0.000000 -28.766851 -38.894888 -18.377561 10.636740 -10.590163 -5.771140 21.711500 6.166029 -4.615199 -11.649764 -13.898948 6.707482 -3.849638 0.337928 0.456999 0.000000 0.000000 0.000000 -30.839960 -41.062742 -20.388412 11.092237 -4.350139 0.414708 3.328744 -1.312977 0.035881 0.528206 1.157434 0.052763 0.000000 0.000000 0.000000 3.561269 -2.194304 0.020861 1.792749 1.812727 -3.502043 -6.517116 -1.126053 4.006720 0.000000 0.000000 0.000000 3.620264 -2.529723 0.189709 0.958473 -15.387935 -11.092018 0.609999 -1.033664 -0.595693 -20.682453 -0.035495 -38.776469 2.404817 -68.011001 2.179051 0.000000 0.000000 0.000000 2.719258 -2.459623 0.161289 -0.090683 11.220742 16.159864 2.175945 3.765993 -2.005446 -10.151519 -7.087134 61.880134 -0.292090 42.619110 1.200088 0.000000 0.000000 0.000000 
3.080858 110.835350 4.690536 0.000000 0.000000 0.000000 -32.496432 -44.687486 -22.174385 -3.456675 13.353563 5.393016 32.915317 3.406327 -3.972637 -9.549233 7.364498 4.877912 -5.375458 0.013374 -0.205280 0.000000 0.000000 0.000000 -29.619727 -40.480783 -19.766223 9.660672 -10.492082 -6.301933 22.097986 6.491349 -5.315287 -10.222874 -13.757082 7.958428 -3.661976 0.314372 0.225382 0.000000 0.000000 0.000000 -31.974728 -42.803740 -21.960335 11.116631 -4.377087 0.291920 3.365980 -1.291966 0.020828 0.468744 1.112609 0.048128 0.000000 0.000000 0.000000 3.525063 -2.169758 0.027573 1.885512 1.747607 -3.484521 -6.450340 -0.976688 3.827408 0.000000 0.000000 0.000000 3.636359 -2.485980 0.188342 1.005236 -15.494257 -11.040132 0.461037 -0.953147 -0.620955 -20.515443 -0.106805 -38.700402 2.408526 -68.117695 2.167330 0.000000 0.000000 0.000000 2.805403 -2.405220 0.152977 -0.059034 11.229693 16.169611 2.190337 3.774403 -1.961917 -10.166794 -7.162169 62.001370 -0.224721 42.500599 1.158944 0.000000 0.000000 0.000000 
3.670310 110.814041 5.778183 0.000000 0.000000 0.000000 -33.755044 -46.756285 -24.058395 -1.571822 14.542735 5.471009 31.266789 3.503144 -5.111639 -10.745429 9.189704 7.012180 -5.308607 -0.040983 -0.099766 0.000000 0.000000 0.000000 -30.558960 -42.086362 -21.222982 8.792627 -10.182385 -6.638184 22.679418 6.205696 -5.991888 -9.148093 -14.056813 8.435962 -3.267084 0.298536 0.150908 0.000000 0.000000 0.000000 -33.255225 -44.470703 -23.652879 11.087272 -4.356241 0.132661 3.404557 -1.268442 0.024315 0.473089 1.036946 0.089046 0.000000 0.000000 0.000000 3.528262 -2.148621 0.045307 2.017660 1.687574 -3.474328 -6.412056 -0.913316 3.671450 0.000000 0.000000 0.000000 3.688551 -2.449877 0.199865 1.072488 -15.541756 -10.887153 0.276086 -0.931861 -0.729561 -20.400453 -0.155972 -38.694685 2.420345 -68.161115 2.177024 0.000000 0.000000 0.000000 2.925904 -2.356407 0.166047 -0.021893 11.266600 16.185421 2.227465 3.789244 -1.904658 -10.093413 -7.238299 62.010482 -0.160778 42.546170 1.115951 0.000000 0.000000 0.000000 
4.246965 110.826546 6.927101 0.000000 0.000000 0.000000 -35.154458 -48.487868 -25.965067 0.066074 15.171257 5.268005 29.951698 3.537890 -5.882424 -11.680511 10.900519 8.445939 -5.033166 -0.041227 -0.144399 0.000000 0.000000 0.000000 -31.700199 -43.791048 -22.859508 8.027855 -9.694434 -6.630944 23.582869 5.291363 -6.597608 -8.439271 -14.678602 8.127979 -2.990982 0.293024 0.228738 0.000000 0.000000 0.000000 -34.689984 -46.084912 -25.473334 10.995040 -4.299560 -0.012465 3.445998 -1.265330 0.046362 0.571272 0.886747 0.218149 0.000000 0.000000 0.000000 3.584107 -2.139276 0.077837 2.124253 1.623998 -3.448293 -6.472598 -0.940310 3.553381 0.000000 0.000000 0.000000 3.768241 -2.434738 0.221728 1.142093 -15.558645 -10.679014 0.132642 -0.929897 -0.884288 -20.409681 -0.137260 -38.754562 2.447950 -68.173430 2.219734 0.000000 0.000000 0.000000 3.045835 -2.332412 0.195099 0.011758 11.314950 16.225598 2.275024 3.834262 -1.852212 -9.959081 -7.327692 61.890345 -0.126955 42.720603 1.087855 0.000000 0.000000 0.000000 
4.822371 110.979324 8.065186 0.000000 0.000000 0.000000 -36.662690 -49.919879 -27.933742 1.564382 15.480028 4.734424 28.738304 3.769609 -6.282551 -12.311647 12.456649 9.353947 -4.678020 0.012574 -0.309212 0.000000 0.000000 0.000000 -33.029087 -45.590669 -24.678734 7.343025 -9.095698 -6.228566 24.817202 4.007251 -7.064843 -8.063609 -15.330515 7.419727 -3.174066 0.306452 0.402030 0.000000 0.000000 0.000000 -36.168580 -47.657201 -27.384040 10.870442 -4.225254 -0.089692 3.472866 -1.283012 0.073485 0.663818 0.729929 0.357916 0.000000 0.000000 0.000000 3.684947 -2.147139 0.114703 2.150939 1.550332 -3.407317 -6.633604 -1.024518 3.489030 0.000000 0.000000 0.000000 3.849922 -2.438791 0.247372 1.194141 -15.559941 -10.480953 0.119981 -0.947438 -0.985105 -20.560504 -0.064308 -38.873458 2.481870 -68.181844 2.288950 0.000000 0.000000 0.000000 3.140355 -2.340763 0.228135 0.034809 11.363953 16.314851 2.328729 3.939340 -1.808590 -9.809139 -7.428779 61.685624 -0.144089 42.968665 1.091347 0.000000 0.000000 0.000000 
5.450898 111.308136 9.167549 0.000000 0.000000 0.000000 -38.322159 -51.227839 -30.035484 2.935573 15.663546 3.913690 27.513078 4.231682 -6.370236 -12.647117 13.821884 9.774968 -4.346215 0.106368 -0.528896 0.000000 0.000000 0.000000 -34.647115 -47.483198 -26.753486 6.698111 -8.540764 -5.466065 26.427803 2.563521 -7.327202 -7.956196 -15.781389 6.603168 -3.858580 0.329630 0.625990 0.000000 0.000000 0.000000 -37.715249 -49.258757 -29.413533 10.747344 -4.160342 -0.078213 3.473750 -1.322667 0.091723 0.756573 0.580731 0.416359 0.000000 0.000000 0.000000 3.809852 -2.167526 0.144853 2.098704 1.491188 -3.359635 -6.843148 -1.125786 3.482075 0.000000 0.000000 0.000000 3.911363 -2.459260 0.266049 1.210224 -15.592437 -10.364646 0.244772 -0.968263 -0.988090 -20.816520 0.041059 -39.037851 2.499353 -68.185369 2.358491 0.000000 0.000000 0.000000 3.191414 -2.379132 0.246771 0.046232 11.405403 16.433365 2.386526 4.106143 -1.780419 -9.672724 -7.543167 61.485274 -0.209752 43.198891 1.135384 0.000000 0.000000 0.000000 
6.092299 111.766922 10.168392 0.000000 0.000000 0.000000 -40.222458 -52.612749 -32.358274 4.235865 15.972006 2.966390 26.373997 4.832704 -6.315642 -12.763393 14.861954 9.765185 -4.141379 0.195858 -0.706239 0.000000 0.000000 0.000000 -36.609623 -49.453001 -29.127451 6.255710 -8.243012 -4.438157 28.375010 1.057605 -7.305420 -8.260133 -15.985332 5.649668 -4.695002 0.350812 0.893308 0.000000 0.000000 0.000000 -39.389786 -50.850301 -31.590151 10.672970 -4.112488 0.023800 3.451006 -1.370314 0.085507 0.790512 0.422646 0.423587 0.000000 0.000000 0.000000 3.932431 -2.193802 0.160478 2.002693 1.436691 -3.326370 -7.027453 -1.195364 3.513197 0.000000 0.000000 0.000000 3.937599 -2.488537 0.263348 1.188997 -15.658639 -10.357366 0.435346 -0.982602 -0.878739 -21.103546 0.132985 -39.234669 2.485585 -68.187950 2.397445 0.000000 0.000000 0.000000 3.203165 -2.428724 0.236795 0.044476 11.448235 16.556865 2.438559 4.277097 -1.767061 -9.561174 -7.628826 61.369639 -0.302643 43.316851 1.209891 0.000000 0.000000 0.000000 
6.784093 112.231895 11.006210 0.000000 0.000000 0.000000 -42.675445 -54.240008 -35.154246 5.406893 16.464584 2.032551 25.561157 5.498066 -6.254371 -12.826416 15.590397 9.415350 -4.060005 0.264975 -0.783369 0.000000 0.000000 0.000000 -38.958388 -51.474092 -31.817842 6.203933 -8.382515 -3.349771 30.423787 -0.474841 -6.958175 -9.050728 -16.114530 4.485809 -5.426227 0.361974 1.177818 0.000000 0.000000 0.000000 -41.362338 -52.468178 -34.058475 10.662070 -4.075670 0.172031 3.411168 -1.403563 0.056351 0.771312 0.347581 0.326134 0.000000 0.000000 0.000000 4.025578 -2.216834 0.152851 1.917408 1.394517 -3.328546 -7.110950 -1.206754 3.574801 0.000000 0.000000 0.000000 3.926860 -2.511066 0.238380 1.138064 -15.728237 -10.460653 0.629938 -0.978641 -0.690368 -21.354923 0.178712 -39.417541 2.434283 -68.166688 2.390804 0.000000 0.000000 0.000000 3.189186 -2.471207 0.193767 0.030808 11.475410 16.643446 2.523769 4.418467 -1.782002 -9.507387 -7.668072 61.393149 -0.389681 43.316827 1.294834 0.000000 0.000000 0.000000 
7.505746 112.493393 11.679096 0.000000 0.000000 0.000000 -45.821110 -56.094575 -38.517844 6.364626 17.025679 1.242237 25.337377 6.140088 -6.301320 -13.110808 16.131018 8.966615 -3.951390 0.306279 -0.755153 0.000000 0.000000 0.000000 -41.744013 -53.558187 -34.895044 6.627635 -9.051339 -2.416804 32.294914 -2.080937 -6.328449 -10.025673 -16.478226 3.410161 -6.382878 0.326914 1.425270 0.000000 0.000000 0.000000 -43.715195 -54.109530 -36.830897 10.691829 -4.040968 0.301092 3.372205 -1.420027 0.016528 0.737788 0.329532 0.210533 0.000000 0.000000 0.000000 4.067907 -2.231283 0.130665 1.893182 1.372834 -3.369259 -7.063420 -1.169515 3.639733 0.000000 0.000000 0.000000 3.894833 -2.526611 0.197139 1.073612 -15.785511 -10.636660 0.732164 -0.907051 -0.508872 -21.509608 0.185520 -39.530037 2.360560 -68.113331 2.346438 0.000000 0.000000 0.000000 3.158123 -2.497306 0.129104 0.004494 11.472675 16.655324 2.647053 4.496290 -1.806411 -9.509059 -7.665327 61.541288 -0.440753 43.203235 1.371027 0.000000 0.000000 0.000000 
